# xmcd CD database file
#
# Track frame offsets:
#	150
#	20670
#	40167
#	62407
#	80535
#	104162
#	124772
#	143955
#	163382
#	186530
#	204407
#	233450
#	255725
#
# Disc length: 3814 seconds
#
# Revision: 5
# Processed by: cddbd v1.5.2PL0 Copyright (c) Steve Scherf et al.
# Submitted via: CDex 1.70beta3
#
DISCID=bb0ee40d
DTITLE=飯島真理 - SOMETHING SPECIAL MARI IIJIMA LIVE '90
DYEAR=1996
DGENRE=New Age
TTITLE0=僕らは天使じゃない
TTITLE1=DIAMOND
TTITLE2=ハートにしまった I LOVE YOU
TTITLE3=Send Love To Me 〜愛をとどけて〜
TTITLE4=瞳のスクリーン
TTITLE5=WHO'S RIGHT, WHO'S WRONG
TTITLE6=Beautiful Music
TTITLE7=日曜日のデート
TTITLE8=Tonight
TTITLE9=Boyfriend
TTITLE10=ロンリー・ガール
TTITLE11=Feel The Sunshine
TTITLE12=ガラスのダーリン
EXTD=YEAR: 1996
EXTT0=
EXTT1=
EXTT2=
EXTT3=
EXTT4=
EXTT5=
EXTT6=
EXTT7=
EXTT8=
EXTT9=
EXTT10=
EXTT11=
EXTT12=
PLAYORDER=
